<svg width="64" height="64" viewBox="0 0 64 64" xmlns="http://www.w3.org/2000/svg">
  <!-- 狗狗头部背景 -->
  <ellipse cx="32" cy="35" rx="18" ry="16" fill="#D2691E" stroke="#8B4513" stroke-width="1"/>
  
  <!-- 左耳 -->
  <ellipse cx="22" cy="22" rx="6" ry="10" fill="#8B4513" transform="rotate(-30 22 22)"/>
  <ellipse cx="23" cy="24" rx="3" ry="6" fill="#D2691E" transform="rotate(-30 23 24)"/>
  
  <!-- 右耳 -->
  <ellipse cx="42" cy="22" rx="6" ry="10" fill="#8B4513" transform="rotate(30 42 22)"/>
  <ellipse cx="41" cy="24" rx="3" ry="6" fill="#D2691E" transform="rotate(30 41 24)"/>
  
  <!-- 鼻子区域 -->
  <ellipse cx="32" cy="38" rx="8" ry="6" fill="#F5DEB3"/>
  
  <!-- 鼻子 -->
  <ellipse cx="32" cy="35" rx="3" ry="2" fill="#000"/>
  
  <!-- 左眼 -->
  <circle cx="27" cy="30" r="3" fill="#000"/>
  <circle cx="28" cy="29" r="1" fill="#FFF"/>
  
  <!-- 右眼 -->
  <circle cx="37" cy="30" r="3" fill="#000"/>
  <circle cx="38" cy="29" r="1" fill="#FFF"/>
  
  <!-- 嘴巴 -->
  <path d="M 32 37 Q 28 42 25 40" stroke="#000" stroke-width="2" fill="none" stroke-linecap="round"/>
  <path d="M 32 37 Q 36 42 39 40" stroke="#000" stroke-width="2" fill="none" stroke-linecap="round"/>
  
  <!-- 舌头 -->
  <ellipse cx="32" cy="43" rx="2" ry="3" fill="#FF69B4"/>
  
  <!-- 斑点装饰 -->
  <circle cx="20" cy="32" r="2" fill="#8B4513"/>
  <circle cx="44" cy="35" r="1.5" fill="#8B4513"/>
</svg>